<?xml version="1.0" encoding="utf-8"?>
<!-- Generator: Adobe Illustrator 23.0.3, SVG Export Plug-In . SVG Version: 6.00 Build 0)  -->
<svg version="1.1" id="Layer_1" xmlns="http://www.w3.org/2000/svg" xmlns:xlink="http://www.w3.org/1999/xlink" x="0px" y="0px"
	 viewBox="0 0 36.96 30.74" style="enable-background:new 0 0 36.96 30.74;" xml:space="preserve">
<style type="text/css">
	.st0{fill:#292A2D;}
	.st1{clip-path:url(#SVGID_2_);}
	.st2{fill:#4481C2;}
	.st3{fill:#0F9BE8;}
	.st4{fill:#00B1FF;}
</style>
<rect x="317.37" y="-120.95" class="st0" width="595.92" height="552.19"/>
<g>
	<defs>
		<path id="SVGID_1_" d="M19.45,8.15v22.6H11.3V8.15H0V0h11.3h8.15h9.08l2.78,8.15H19.45z M36.96,25.47c0-2.91-2.36-5.27-5.27-5.27
			s-5.27,2.36-5.27,5.27s2.36,5.27,5.27,5.27S36.96,28.38,36.96,25.47z"/>
	</defs>
	<clipPath id="SVGID_2_">
		<use xlink:href="#SVGID_1_"  style="overflow:visible;"/>
	</clipPath>
	<g class="st1">
		<g>
			
				<rect x="-37.44" y="-18.03" transform="matrix(0.7071 -0.7071 0.7071 0.7071 12.5996 -4.6502)" class="st2" width="76.26" height="1"/>
		</g>
		<g>
			
				<rect x="-35.6" y="-16.19" transform="matrix(0.7071 -0.7071 0.7071 0.7071 11.8355 -2.8055)" class="st2" width="76.26" height="1"/>
		</g>
		<g>
			
				<rect x="-33.75" y="-14.34" transform="matrix(0.7071 -0.7071 0.7071 0.7071 11.0714 -0.9607)" class="st2" width="76.26" height="1"/>
		</g>
		<g>
			
				<rect x="-31.91" y="-12.5" transform="matrix(0.7071 -0.7071 0.7071 0.7071 10.3073 0.884)" class="st2" width="76.26" height="1"/>
		</g>
		<g>
			
				<rect x="-30.06" y="-10.65" transform="matrix(0.7071 -0.7071 0.7071 0.7071 9.543 2.7288)" class="st2" width="76.26" height="1"/>
		</g>
		<g>
			
				<rect x="-28.22" y="-8.81" transform="matrix(0.7071 -0.7071 0.7071 0.7071 8.7789 4.5735)" class="st2" width="76.26" height="1"/>
		</g>
		<g>
			
				<rect x="-26.37" y="-6.97" transform="matrix(0.7071 -0.7071 0.7071 0.7071 8.0148 6.4182)" class="st2" width="76.26" height="1"/>
		</g>
		<g>
			
				<rect x="-24.53" y="-5.12" transform="matrix(0.7071 -0.7071 0.7071 0.7071 7.2507 8.263)" class="st2" width="76.26" height="1"/>
		</g>
		<g>
			
				<rect x="-22.69" y="-3.28" transform="matrix(0.7071 -0.7071 0.7071 0.7071 6.4865 10.1079)" class="st2" width="76.26" height="1"/>
		</g>
		<g>
			
				<rect x="-20.84" y="-1.43" transform="matrix(0.7071 -0.7071 0.7071 0.7071 5.7223 11.9527)" class="st2" width="76.26" height="1"/>
		</g>
		<g>
			<rect x="-19" y="0.41" transform="matrix(0.7074 -0.7069 0.7069 0.7074 4.9537 13.7925)" class="st2" width="76.26" height="1"/>
		</g>
		<g>
			
				<rect x="-17.15" y="2.26" transform="matrix(0.7071 -0.7071 0.7071 0.7071 4.1943 15.642)" class="st2" width="76.26" height="1"/>
		</g>
		<g>
			
				<rect x="-15.31" y="4.1" transform="matrix(0.7071 -0.7071 0.7071 0.7071 3.4302 17.4868)" class="st2" width="76.26" height="1"/>
		</g>
		<g>
			
				<rect x="-13.46" y="5.95" transform="matrix(0.7071 -0.7071 0.7071 0.7071 2.6661 19.3315)" class="st2" width="76.26" height="1"/>
		</g>
		<g>
			
				<rect x="-11.62" y="7.79" transform="matrix(0.7071 -0.7071 0.7071 0.7071 1.9016 21.1764)" class="st2" width="76.26" height="1"/>
		</g>
		<g>
			
				<rect x="-9.77" y="9.64" transform="matrix(0.7071 -0.7071 0.7071 0.7071 1.1375 23.0211)" class="st2" width="76.26" height="1"/>
		</g>
		<g>
			
				<rect x="-7.93" y="11.48" transform="matrix(0.7071 -0.7071 0.7071 0.7071 0.3734 24.8658)" class="st2" width="76.26" height="1"/>
		</g>
		<g>
			
				<rect x="-6.08" y="13.33" transform="matrix(0.7071 -0.7071 0.7071 0.7071 -0.3909 26.7106)" class="st2" width="76.26" height="1"/>
		</g>
		<g>
			
				<rect x="-4.24" y="15.17" transform="matrix(0.7071 -0.7071 0.7071 0.7071 -1.1549 28.5557)" class="st2" width="76.26" height="1"/>
		</g>
		<g>
			
				<rect x="-2.39" y="17.02" transform="matrix(0.7071 -0.7071 0.7071 0.7071 -1.919 30.4004)" class="st2" width="76.26" height="1"/>
		</g>
		<g>
			
				<rect x="-0.55" y="18.86" transform="matrix(0.7071 -0.7071 0.7071 0.7071 -2.683 32.2453)" class="st2" width="76.26" height="1"/>
		</g>
		<g>
			<rect x="1.3" y="20.71" transform="matrix(0.7071 -0.7071 0.7071 0.7071 -3.4471 34.09)" class="st2" width="76.26" height="1"/>
		</g>
		<g>
			
				<rect x="3.14" y="22.55" transform="matrix(0.7071 -0.7071 0.7071 0.7071 -4.2112 35.9348)" class="st2" width="76.26" height="1"/>
		</g>
		<g>
			
				<rect x="4.99" y="24.4" transform="matrix(0.7071 -0.7071 0.7071 0.7071 -4.9753 37.7795)" class="st2" width="76.26" height="1"/>
		</g>
		<g>
			
				<rect x="6.83" y="26.24" transform="matrix(0.7071 -0.7071 0.7071 0.7071 -5.7394 39.6242)" class="st2" width="76.26" height="1"/>
		</g>
		<g>
			
				<rect x="8.68" y="28.09" transform="matrix(0.7071 -0.7071 0.7071 0.7071 -6.5036 41.4689)" class="st2" width="76.26" height="1"/>
		</g>
	</g>
</g>
<path class="st3" d="M133.91,8.15v22.6h-8.15V8.15h-11.3V0h11.3h8.15h9.08l2.78,8.15H133.91z M151.42,25.47
	c0-2.91-2.36-5.27-5.27-5.27s-5.27,2.36-5.27,5.27s2.36,5.27,5.27,5.27S151.42,28.38,151.42,25.47z"/>
<path class="st4" d="M185.15,8.15v22.6H177V8.15h-11.3V0H177h8.15h9.08l2.78,8.15H185.15z M202.67,25.47c0-2.91-2.36-5.27-5.27-5.27
	s-5.27,2.36-5.27,5.27s2.36,5.27,5.27,5.27S202.67,28.38,202.67,25.47z"/>
<path class="st3" d="M424.15,8.15v22.6H416V8.15h-11.3V0H416h8.15h9.08L436,8.15H424.15z M441.66,25.47c0-2.91-2.36-5.27-5.27-5.27
	s-5.27,2.36-5.27,5.27s2.36,5.27,5.27,5.27S441.66,28.38,441.66,25.47z"/>
<path class="st4" d="M475.39,8.15v22.6h-8.15V8.15h-11.3V0h11.3h8.15h9.08l2.78,8.15H475.39z M492.91,25.47
	c0-2.91-2.36-5.27-5.27-5.27s-5.27,2.36-5.27,5.27s2.36,5.27,5.27,5.27S492.91,28.38,492.91,25.47z"/>
<rect x="100.08" y="78.53" style="fill:none;" width="114.04" height="15.83"/>
<text transform="matrix(1 0 0 1 145.8063 87.3645)" style="font-family:'Muli-Regular'; font-size:12px;">Link</text>
<rect x="100.08" y="104.76" style="fill:none;" width="114.04" height="15.83"/>
<text transform="matrix(1 0 0 1 145.8063 113.5904)" class="st3" style="font-family:'Muli-Regular'; font-size:12px; text-decoration: underline;">Link</text>
<rect x="390.55" y="78.53" style="fill:none;" width="114.04" height="15.83"/>
<text transform="matrix(1 0 0 1 436.2705 87.3645)" style="fill:#FFFFFF; font-family:'Muli-Regular'; font-size:12px;">Link</text>
<rect x="390.55" y="104.76" style="fill:none;" width="114.04" height="15.83"/>
<text transform="matrix(1 0 0 1 436.2705 113.5904)" style="fill:#C6C6C6; font-family:'Muli-Regular'; font-size:12px; text-decoration: underline;">Link</text>
<g>
	<path class="st3" d="M225.97-237.3v27c0,3.84,1,6.64,3.02,8.43c2.01,1.78,4.61,2.67,7.81,2.67c2.01,0,4.29-0.32,6.85-0.96v16.04
		c-3.28,1.28-7.26,1.92-11.92,1.92c-8.59,0-15.13-2.42-19.66-7.27c-4.52-4.84-6.78-11.65-6.78-20.42v-27.41h-13.16v-15.49h13.16
		v-16.31l20.69-6.71v23.03h17.68v15.49H225.97z"/>
</g>
</svg>
