<?xml version="1.0" standalone="no"?>
<!DOCTYPE svg PUBLIC "-//W3C//DTD SVG 20010904//EN"
 "http://www.w3.org/TR/2001/REC-SVG-20010904/DTD/svg10.dtd">
<svg version="1.0" xmlns="http://www.w3.org/2000/svg"
 width="984.000000pt" height="984.000000pt" viewBox="0 0 984.000000 984.000000"
 preserveAspectRatio="xMidYMid meet">
<metadata>
Created by potrace 1.11, written by Peter Selinger 2001-2013
</metadata>
<g transform="translate(0.000000,984.000000) scale(0.100000,-0.100000)"
fill="#000000" stroke="none">
<path d="M3621 7850 c-22 -23 -39 -58 -61 -133 -42 -137 -72 -237 -100 -327
-13 -41 -25 -79 -26 -85 -1 -5 -23 -77 -49 -160 -25 -82 -48 -158 -50 -168 -6
-25 -64 -217 -76 -247 -5 -14 -10 -34 -12 -45 -2 -11 -12 -47 -22 -80 -11 -33
-19 -62 -20 -65 0 -3 -4 -11 -8 -17 -5 -7 -6 -13 -3 -13 3 0 -2 -19 -10 -42
-9 -24 -17 -53 -20 -64 -2 -12 -14 -53 -25 -90 -12 -38 -22 -73 -24 -79 -1 -5
-5 -17 -8 -25 -3 -8 -25 -80 -47 -160 -23 -80 -62 -212 -86 -295 -24 -82 -46
-157 -48 -165 -19 -72 -40 -137 -47 -144 -4 -5 -19 -10 -32 -12 -24 -2 -69 -9
-117 -18 -64 -12 -310 -43 -415 -51 -284 -25 -681 -25 -841 -1 -17 3 -60 8
-95 11 -35 4 -66 8 -70 10 -3 2 -28 7 -55 10 -69 9 -309 70 -416 106 -109 36
-258 100 -347 147 -36 19 -88 46 -114 60 -147 75 -343 -35 -363 -204 -12 -100
25 -163 159 -272 128 -104 296 -206 462 -279 57 -25 278 -100 315 -107 14 -2
25 -5 25 -6 0 -2 8 -4 80 -20 28 -6 64 -12 81 -14 17 -2 39 -6 50 -9 10 -3 46
-9 79 -13 33 -3 62 -8 65 -9 31 -18 636 -27 815 -11 50 4 108 9 130 11 47 4
138 14 179 21 16 3 52 7 80 9 28 3 63 7 79 10 66 12 77 13 82 5 3 -5 -17 -87
-45 -182 -28 -95 -52 -180 -54 -188 -3 -8 -18 -64 -36 -125 -17 -60 -33 -114
-34 -120 -2 -5 -10 -35 -19 -65 -9 -30 -17 -57 -17 -60 0 -3 -9 -34 -20 -70
-23 -72 -82 -278 -110 -381 -9 -37 -20 -71 -23 -76 -3 -5 -8 -20 -11 -34 -2
-13 -16 -63 -30 -111 -14 -47 -69 -236 -122 -420 -53 -183 -114 -394 -136
-468 -86 -293 -89 -316 -48 -404 25 -52 95 -121 145 -142 48 -19 168 -18 208
2 41 21 65 48 193 214 58 74 114 145 124 156 11 12 20 26 20 32 0 6 4 12 9 14
4 2 28 31 52 65 24 33 80 112 125 175 157 221 483 726 595 924 10 19 28 49 38
68 11 19 31 53 45 75 15 22 26 43 26 45 0 3 22 43 49 88 45 79 65 114 149 268
19 36 44 81 55 100 11 19 49 90 84 158 35 67 75 141 88 163 l23 41 -4 -73 c-2
-41 -6 -144 -9 -229 -3 -85 -8 -218 -11 -295 -3 -77 -7 -194 -9 -260 -2 -66
-4 -120 -5 -120 0 0 -3 -61 -5 -135 -2 -74 -7 -209 -11 -300 -9 -219 -6 -267
15 -316 67 -150 293 -193 406 -77 15 16 52 75 82 133 139 268 236 456 299 580
38 74 71 137 74 140 3 3 48 88 100 190 51 102 117 229 145 282 27 54 82 159
121 235 39 76 97 188 129 248 32 61 94 180 138 265 113 219 117 226 118 215 2
-14 2 -12 -6 -110 -7 -84 -9 -108 -19 -210 -8 -90 -17 -165 -21 -185 -2 -11
-7 -56 -10 -98 -4 -42 -8 -88 -11 -102 -10 -56 -24 -297 -25 -435 -1 -105 13
-330 21 -330 1 0 3 -16 5 -35 6 -53 11 -79 36 -170 17 -66 30 -93 61 -126 76
-82 205 -111 299 -67 42 20 114 90 250 244 31 35 67 76 80 90 13 14 44 50 69
79 25 29 51 59 59 67 7 8 78 94 157 191 80 97 153 188 164 200 11 13 20 27 20
32 0 5 4 10 9 12 4 2 54 64 110 138 55 74 104 140 109 145 4 6 23 33 42 60 19
28 38 52 41 55 6 5 104 146 124 179 6 9 13 18 16 21 3 3 49 71 103 153 53 81
99 147 100 147 2 0 3 -17 4 -37 0 -21 3 -96 6 -168 3 -71 8 -187 11 -258 2
-70 7 -147 9 -170 20 -179 22 -189 30 -232 15 -78 18 -91 26 -110 4 -11 15
-41 25 -67 58 -164 211 -302 371 -337 55 -11 168 -7 224 10 25 7 47 13 50 13
16 3 110 53 137 72 17 13 36 24 42 24 6 0 11 4 11 8 0 4 13 16 30 25 52 31
367 354 418 429 9 13 19 25 22 28 3 3 33 39 66 80 32 41 62 77 67 78 4 2 7 9
7 16 0 6 8 19 18 27 28 26 172 242 265 397 48 79 130 232 183 340 53 108 101
204 106 212 4 8 11 22 15 30 3 8 14 33 24 55 75 172 184 474 205 570 1 6 7 28
12 50 6 22 14 55 17 74 3 19 8 37 10 40 2 4 6 27 9 51 3 25 9 63 12 85 10 56
11 330 2 390 -18 122 -86 275 -156 351 -59 65 -137 121 -199 144 -32 11 -65
23 -73 27 -30 12 -46 14 -150 17 -113 4 -222 -10 -347 -44 -78 -22 -811 -263
-848 -279 -18 -9 -49 -20 -220 -81 -140 -49 -297 -104 -390 -136 -55 -19 -109
-38 -120 -44 -11 -5 -204 -70 -430 -145 -225 -76 -417 -139 -425 -142 -8 -4
-19 -7 -25 -9 -5 -1 -29 -9 -53 -18 -23 -8 -44 -16 -47 -16 -3 0 -10 -3 -17
-5 -7 -2 -49 -16 -93 -30 -362 -116 -466 -147 -505 -149 -25 -2 -62 -14 -82
-26 -21 -12 -59 -29 -85 -37 -76 -23 -217 -65 -228 -67 -5 -1 -26 -7 -45 -13
-105 -34 -555 -160 -592 -167 -15 -2 -31 -7 -36 -10 -8 -5 -42 -13 -94 -23
-17 -3 -28 -1 -28 5 0 18 -62 71 -110 94 -62 29 -169 30 -225 1 -55 -29 -78
-56 -126 -148 -23 -44 -43 -81 -44 -83 -4 -4 -99 -29 -135 -36 -14 -2 -55 -11
-91 -20 -37 -8 -79 -18 -93 -21 -14 -3 -36 -7 -48 -10 -200 -45 -284 -62 -286
-60 -3 2 29 133 84 345 17 65 19 71 33 130 7 25 13 52 15 60 19 73 228 909
231 920 2 8 11 44 20 80 9 36 18 72 20 80 2 8 8 33 13 55 6 22 13 51 16 65 3
14 17 72 32 130 30 124 33 137 40 170 3 14 10 43 16 65 18 65 19 69 19 103 0
44 -27 98 -61 122 -22 16 -44 20 -108 20 -76 0 -82 -2 -111 -30z m5611 -1151
c88 -36 80 -264 -23 -614 -17 -55 -31 -107 -33 -115 -5 -21 -94 -255 -118
-310 -40 -91 -172 -357 -208 -420 -21 -36 -47 -81 -58 -102 -24 -42 -153 -248
-164 -263 -8 -9 -67 -91 -106 -145 -21 -30 -153 -190 -202 -245 -19 -22 -102
-107 -184 -188 l-150 -148 -16 43 c-12 30 -17 75 -17 153 0 61 -3 148 -7 195
-11 154 -17 244 -21 325 -2 44 -5 80 -6 80 -1 0 -3 22 -13 190 -4 66 -9 136
-11 155 -2 19 -6 85 -10 145 -3 61 -8 133 -10 160 -2 28 -6 88 -9 135 -7 103
-15 180 -19 200 -13 55 -75 134 -133 170 -46 29 -132 48 -172 39 -50 -11 -26
5 38 27 30 10 57 19 60 19 3 1 12 5 20 8 16 7 293 104 395 138 33 11 67 23 75
26 8 4 18 7 23 8 4 2 9 4 12 5 3 1 8 3 13 5 4 1 14 4 22 7 8 4 29 11 45 16 17
6 95 34 175 62 80 28 177 62 215 75 127 42 209 73 309 115 158 66 220 77 288
49z m-1732 -563 c0 -2 -7 -7 -16 -10 -8 -3 -12 -2 -9 4 6 10 25 14 25 6z m-73
-43 c-34 -27 -63 -70 -124 -183 -17 -30 -61 -109 -99 -175 -99 -171 -98 -169
-104 -175 -3 -3 -11 -16 -18 -30 -6 -14 -30 -54 -52 -89 -22 -34 -40 -67 -40
-72 0 -5 -4 -9 -10 -9 -5 0 -10 -5 -10 -10 0 -9 -186 -299 -200 -310 -3 -3
-11 -17 -17 -32 -7 -16 -17 -28 -23 -28 -5 0 -10 -4 -10 -10 0 -12 -118 -182
-264 -380 -61 -82 -239 -314 -246 -320 -3 -3 -19 -23 -35 -45 -17 -22 -32 -42
-35 -45 -3 -3 -36 -42 -74 -87 -37 -46 -69 -83 -70 -83 -10 0 12 401 29 530 3
19 7 67 10 105 3 39 8 81 10 95 6 41 17 132 20 170 1 19 6 82 11 140 9 122 9
445 0 541 l-6 65 138 44 c75 25 140 45 145 46 4 1 8 2 10 3 2 1 707 241 722
245 6 2 17 5 25 8 57 22 161 58 163 57 1 0 15 4 30 10 16 6 34 11 42 11 8 0
17 5 20 10 4 6 10 8 13 6 4 -2 18 2 32 10 43 24 55 15 17 -13z m-2239 -738
c-6 -14 -15 -25 -20 -25 -4 0 -8 -8 -8 -18 0 -10 -4 -22 -9 -27 -5 -6 -40 -71
-79 -145 -106 -206 -115 -225 -113 -229 2 -2 -1 -7 -6 -10 -8 -5 -35 -57 -160
-301 -21 -41 -41 -76 -45 -78 -5 -2 -8 -12 -8 -22 0 -10 -4 -21 -8 -24 -4 -2
-35 -58 -68 -123 -32 -65 -61 -120 -64 -123 -3 -3 -25 -44 -50 -92 -24 -49
-47 -88 -51 -88 -4 0 -5 17 -4 38 4 33 7 136 20 542 2 58 6 177 10 265 3 88 7
194 9 235 l3 75 119 33 c65 18 128 35 139 37 11 3 83 23 160 45 77 22 150 43
162 45 12 3 32 9 45 14 32 12 39 5 26 -24z m-1584 -445 c-24 -44 -44 -85 -44
-90 0 -6 -4 -10 -10 -10 -5 0 -10 -5 -10 -11 0 -6 -23 -52 -52 -103 -28 -50
-67 -120 -86 -156 -20 -36 -85 -150 -145 -255 -60 -104 -121 -211 -136 -237
-102 -184 -266 -445 -256 -409 4 13 9 31 10 40 2 9 4 16 5 16 2 0 4 11 13 50
5 18 74 283 98 375 5 19 12 43 14 53 2 10 7 27 10 37 3 10 7 27 9 37 2 10 16
63 30 118 15 55 28 107 30 115 29 116 40 157 44 170 3 8 7 23 8 32 10 49 56
214 62 220 4 4 18 9 32 11 14 3 59 12 100 21 42 8 91 18 110 20 19 3 62 12 95
19 33 8 72 15 87 16 l27 1 -45 -80z"/>
</g>
</svg>
